<?xml version="1.0" encoding="UTF-8" standalone="no"?>
<!-- Created with Inkscape (http://www.inkscape.org/) -->

<svg
   width="120"
   height="120"
   viewBox="0 0 31.75 31.75"
   version="1.1"
   id="svg1"
   inkscape:version="1.3.2 (091e20e, 2023-11-25, custom)"
   sodipodi:docname="당근빳다.svg"
   xmlns:inkscape="http://www.inkscape.org/namespaces/inkscape"
   xmlns:sodipodi="http://sodipodi.sourceforge.net/DTD/sodipodi-0.dtd"
   xmlns="http://www.w3.org/2000/svg"
   xmlns:svg="http://www.w3.org/2000/svg">
  <sodipodi:namedview
     id="namedview1"
     pagecolor="#ffffff"
     bordercolor="#000000"
     borderopacity="0.25"
     inkscape:showpageshadow="2"
     inkscape:pageopacity="0.0"
     inkscape:pagecheckerboard="0"
     inkscape:deskcolor="#d1d1d1"
     inkscape:document-units="mm"
     inkscape:zoom="2.8284272"
     inkscape:cx="11.844038"
     inkscape:cy="85.206365"
     inkscape:window-width="1920"
     inkscape:window-height="1130"
     inkscape:window-x="-6"
     inkscape:window-y="-6"
     inkscape:window-maximized="1"
     inkscape:current-layer="layer1" />
  <defs
     id="defs1" />
  <g
     inkscape:label="Layer 1"
     inkscape:groupmode="layer"
     id="layer1">
    <path
       d="m 11.083054,18.679743 -2.7667558,2.636531 c 0.016691,-0.01602 0.031072,-0.03042 0.031006,-0.03049 -1.8e-4,-2e-4 -0.00424,0.0025 -0.0093,0.0057 -0.023139,0.01461 -0.048661,0.02426 -0.076998,0.02945 -0.01604,0.003 -0.053997,0.0032 -0.069763,5.17e-4 -0.045966,-0.008 -0.085423,-0.0282 -0.1173055,-0.06046 -0.017412,-0.01761 -0.033145,-0.0407 -0.042375,-0.06201 -0.00205,-0.0047 -0.00402,-0.0074 -0.00465,-0.0083 -10e-6,-10e-5 -5.302e-4,-0.0015 -5.167e-4,-0.0016 C 7.7275206,19.94583 6.6158258,19.06912 5.3371544,19.068281 3.8085595,19.068246 2.56933,20.307475 2.5693647,21.83607 c 0.00122,0.934635 0.4741009,1.805561 1.2572876,2.315621 -0.4078044,0.491176 -0.6332844,1.10828 -0.6382039,1.746664 -3.47e-5,1.528579 1.2392101,2.767824 2.7677897,2.767789 0.6102825,-0.0044 1.2020374,-0.210455 1.6831014,-0.58601 0.5149491,0.756465 1.3705468,1.209508 2.2856486,1.210262 1.5282039,-2.51e-4 2.7670229,-1.23907 2.7672739,-2.767273 -1.11e-4,-1.231944 -0.814493,-2.315538 -1.997811,-2.658236 -0.0013,-7.31e-4 -9.16e-4,-6.54e-4 -0.0026,-0.0015 -0.01933,-0.01026 -0.03432,-0.02098 -0.04961,-0.03566 -0.0524,-0.05029 -0.07518,-0.122911 -0.06098,-0.19482 0.0049,-0.02461 0.01701,-0.05373 0.03049,-0.0739 0.0034,-0.0051 0.0054,-0.0089 0.0057,-0.0098 l 2.487186,-2.369881 z"
       style="fill:#00a94b;fill-opacity:1;stroke-width:0.00103353"
       id="path16" />
    <path
       d="m 24.411211,3.830741 c -4.916506,0.1670298 -9.632012,2.2818233 -13.080022,5.9715363 -0.21297,0.2387137 -0.419974,0.4828317 -0.620801,0.7321057 -0.149995,0.174581 -0.29686,0.351908 -0.440508,0.531879 -0.101571,0.141212 -0.19833,0.285828 -0.290106,0.433593 -0.8343052,1.281971 -1.2679018,2.783436 -1.2454645,4.312817 0.089837,4.251494 3.6093395,7.625251 7.8608315,7.535307 1.456429,-0.0382 2.872202,-0.488754 4.082754,-1.299439 0.22355,-0.146568 0.439318,-0.304681 0.646422,-0.473691 0.09421,-0.0779 0.187661,-0.156721 0.280318,-0.236455 0.209175,-0.179297 0.414331,-0.363208 0.615313,-0.551599 C 26.766687,16.5116 28.86913,10.236619 27.834083,4.0307662 26.691201,3.8572671 25.545788,3.7921958 24.411211,3.830741 Z m -7.141551,7.415742 a 3.4128363,3.4128363 0 0 1 3.484088,3.33981 3.4128363,3.4128363 0 0 1 -3.339809,3.484088 3.4128363,3.4128363 0 0 1 -3.484088,-3.339809 3.4128363,3.4128363 0 0 1 3.339809,-3.484089 z"
       style="fill:#ff7414;fill-opacity:1;stroke-width:0.330729"
       id="path5" />
  </g>
</svg>
