<?xml version="1.0" encoding="UTF-8" standalone="no"?>
<!-- Created with Inkscape (http://www.inkscape.org/) -->

<svg
   width="360"
   height="120"
   viewBox="0 0 95.249998 31.75"
   version="1.1"
   id="svg1"
   inkscape:version="1.3.2 (091e20e, 2023-11-25, custom)"
   sodipodi:docname="당근빳다텍스트.svg"
   xmlns:inkscape="http://www.inkscape.org/namespaces/inkscape"
   xmlns:sodipodi="http://sodipodi.sourceforge.net/DTD/sodipodi-0.dtd"
   xmlns="http://www.w3.org/2000/svg"
   xmlns:svg="http://www.w3.org/2000/svg">
  <sodipodi:namedview
     id="namedview1"
     pagecolor="#ffffff"
     bordercolor="#000000"
     borderopacity="0.25"
     inkscape:showpageshadow="2"
     inkscape:pageopacity="0.0"
     inkscape:pagecheckerboard="0"
     inkscape:deskcolor="#d1d1d1"
     inkscape:document-units="mm"
     inkscape:zoom="3.1785634"
     inkscape:cx="178.53978"
     inkscape:cy="25.48321"
     inkscape:window-width="1920"
     inkscape:window-height="1130"
     inkscape:window-x="-6"
     inkscape:window-y="-6"
     inkscape:window-maximized="1"
     inkscape:current-layer="svg1" />
  <defs
     id="defs1">
    <rect
       x="7.2359733"
       y="5.6629356"
       width="345.43907"
       height="106.96656"
       id="rect4" />
    <rect
       x="110.74185"
       y="295.73108"
       width="249.79838"
       height="240.36016"
       id="rect3" />
    <rect
       x="139.68575"
       y="387.59647"
       width="408.98981"
       height="172.40492"
       id="rect1" />
  </defs>
  <path
     d="m 29.197184,18.969385 v 6.547921 h 16.03003 v -2.032435 h -13.54646 v -4.515486 z"
     style="font-size:22.5778px;font-family:'SANGJU Haerye';-inkscape-font-specification:'SANGJU Haerye';letter-spacing:-1.32292px;fill:#ef7c00;stroke-width:0.264583"
     id="path23" />
  <path
     d="m 57.563928,17.321423 -7.947318,6.77323 1.580265,1.783871 6.367053,-5.531962 6.367053,5.531962 1.580266,-1.783871 z"
     style="font-size:22.5778px;font-family:'SANGJU Haerye';-inkscape-font-specification:'SANGJU Haerye';letter-spacing:-1.32292px;fill:#ef7c00;stroke-width:0.264583"
     id="path22" />
  <path
     d="m 18.192171,16.937467 c -0.918163,0 -1.768569,0.203382 -2.551265,0.609782 -0.782697,0.391349 -1.40718,0.940525 -1.873788,1.647962 -0.451555,0.707437 -0.677478,1.512762 -0.677478,2.415873 0,0.903111 0.225923,1.708436 0.677478,2.415873 0.466608,0.707437 1.091091,1.256613 1.873788,1.647962 0.782696,0.4064 1.633102,0.609782 2.551265,0.609782 0.918163,0 1.768569,-0.203382 2.551266,-0.609782 0.782696,-0.391349 1.400011,-0.940525 1.851566,-1.647962 0.466608,-0.707437 0.699699,-1.512762 0.699699,-2.415873 0,-0.903111 -0.233091,-1.708436 -0.699699,-2.415873 -0.451555,-0.707437 -1.06887,-1.256613 -1.851566,-1.647962 -0.782697,-0.4064 -1.633103,-0.609782 -2.551266,-0.609782 z m 0,2.031918 c 0.737541,0 1.354856,0.248463 1.851567,0.745174 0.511763,0.481659 0.767395,1.113829 0.767395,1.896525 0,0.782696 -0.255632,1.414866 -0.767395,1.896525 -0.496711,0.496711 -1.114026,0.745174 -1.851567,0.745174 -0.752592,0 -1.377076,-0.248463 -1.873787,-0.745174 -0.496711,-0.481659 -0.745174,-1.113829 -0.745174,-1.896525 0,-0.782696 0.248463,-1.414866 0.745174,-1.896525 0.496711,-0.496711 1.121195,-0.745174 1.873787,-0.745174 z m 11.005013,0 h 2.48357 v 4.515486 h 13.54646 v 2.032435 h -16.03003 z"
     style="font-size:22.5778px;font-family:'SANGJU Haerye';-inkscape-font-specification:'SANGJU Haerye';letter-spacing:-1.32292px;fill:#ef7c00;stroke-width:0.264583"
     id="path21" />
  <path
     d="m 27.616402,15.018205 v 2.032434 h 18.965251 v -2.032434 z"
     style="font-size:22.5778px;font-family:'SANGJU Haerye';-inkscape-font-specification:'SANGJU Haerye';letter-spacing:-1.32292px;fill:#ef7c00;stroke-width:0.264583"
     id="path20" />
  <path
     d="m 27.616402,15.018205 h 18.965251 v 2.032434 H 27.616402 Z"
     style="font-size:22.5778px;font-family:'SANGJU Haerye';-inkscape-font-specification:'SANGJU Haerye';letter-spacing:-1.32292px;fill:#ef7c00;stroke-width:0.264583"
     id="path19" />
  <path
     d="M 67.868726,6.7773641 V 8.832019 h 1.128613 v 13.298413 h 10.702189 v -2.054655 h -8.21862 V 8.832019 H 79.51866 V 6.7773641 Z"
     style="font-size:22.5778px;font-family:'SANGJU Haerye';-inkscape-font-specification:'SANGJU Haerye';letter-spacing:-1.32292px;fill:#ef7c00;stroke-width:0.264583"
     id="path18" />
  <path
     d="M 6.8130208,6.3257121 V 8.380367 h 1.1291301 v 7.428487 H 18.643823 V 13.754199 H 10.42572 V 8.380367 h 8.037752 V 6.3257121 Z"
     style="font-size:22.5778px;font-family:'SANGJU Haerye';-inkscape-font-specification:'SANGJU Haerye';letter-spacing:-1.32292px;fill:#ef7c00;stroke-width:0.264583"
     id="path17" />
  <path
     d="M 47.968132,6.2130575 V 16.305465 h 12.19202 V 6.2130575 H 57.722058 V 9.0805827 H 55.283447 V 6.2130575 H 52.844836 V 9.0805827 H 50.406742 V 6.2130575 Z m 2.43861,4.8539675 h 2.438094 v 3.228743 h -2.438094 z m 4.876705,0 h 2.438611 v 3.228743 h -2.438611 z"
     style="font-size:22.5778px;font-family:'SANGJU Haerye';-inkscape-font-specification:'SANGJU Haerye';letter-spacing:-1.32292px;fill:#ef7c00;stroke-width:0.264583"
     id="path16" />
  <path
     d="m 29.197184,6.1004028 v 2.0319173 h 13.320634 v 5.3056189 h 2.48357 V 6.1004028 Z"
     style="font-size:22.5778px;font-family:'SANGJU Haerye';-inkscape-font-specification:'SANGJU Haerye';letter-spacing:-1.32292px;fill:#ef7c00;stroke-width:0.264583"
     id="path15" />
  <path
     d="M 82.769625,5.8745768 V 25.291479 h 2.483569 v -9.821622 h 3.161048 V 13.437939 H 85.253194 V 5.8745768 Z"
     style="font-size:22.5778px;font-family:'SANGJU Haerye';-inkscape-font-specification:'SANGJU Haerye';letter-spacing:-1.32292px;fill:#ef7c00;stroke-width:0.264583"
     id="path14" />
  <path
     d="M 62.417896,5.8745768 V 17.389119 h 2.483569 v -4.741312 h 3.161047 V 10.615889 H 64.901465 V 5.8745768 Z"
     style="font-size:22.5778px;font-family:'SANGJU Haerye';-inkscape-font-specification:'SANGJU Haerye';letter-spacing:-1.32292px;fill:#ef7c00;stroke-width:0.264583"
     id="path13" />
  <path
     d="M 21.714437,5.8745768 V 16.937467 h 2.483569 v -4.741312 h 3.161048 V 10.164237 H 24.198006 V 5.8745768 Z"
     style="font-size:22.5778px;font-family:'SANGJU Haerye';-inkscape-font-specification:'SANGJU Haerye';letter-spacing:-1.32292px;fill:#ef7c00;stroke-width:0.264583"
     id="path12" />
  <g
     inkscape:label="Layer 1"
     inkscape:groupmode="layer"
     id="layer1">
    <g
       id="g1" />
  </g>
</svg>
