<?xml version="1.0" encoding="UTF-8" standalone="no"?>
<!-- Created with Inkscape (http://www.inkscape.org/) -->

<svg
   width="150"
   height="150"
   viewBox="0 0 39.6875 39.6875"
   version="1.1"
   id="svg1"
   inkscape:version="1.3 (0e150ed6c4, 2023-07-21)"
   sodipodi:docname="당근.svg"
   xmlns:inkscape="http://www.inkscape.org/namespaces/inkscape"
   xmlns:sodipodi="http://sodipodi.sourceforge.net/DTD/sodipodi-0.dtd"
   xmlns="http://www.w3.org/2000/svg"
   xmlns:svg="http://www.w3.org/2000/svg">
  <sodipodi:namedview
     id="namedview1"
     pagecolor="#ffffff"
     bordercolor="#000000"
     borderopacity="0.25"
     inkscape:showpageshadow="2"
     inkscape:pageopacity="0.0"
     inkscape:pagecheckerboard="0"
     inkscape:deskcolor="#d1d1d1"
     inkscape:document-units="mm"
     showguides="true"
     inkscape:zoom="7.1408658"
     inkscape:cx="65.81835"
     inkscape:cy="67.428799"
     inkscape:window-width="2880"
     inkscape:window-height="1694"
     inkscape:window-x="-11"
     inkscape:window-y="-11"
     inkscape:window-maximized="1"
     inkscape:current-layer="layer1" />
  <defs
     id="defs1" />
  <g
     inkscape:label="Layer 1"
     inkscape:groupmode="layer"
     id="layer1">
    <path
       d="m 21.37854,3.4111613 c -0.232309,-9.94e-5 -0.464184,0.020131 -0.692981,0.060461 -0.228757,0.040577 -0.453543,0.1010964 -0.671794,0.1808675 -0.218305,0.079607 -0.429257,0.1781671 -0.630452,0.2945557 -0.201057,0.116299 -0.391605,0.2499594 -0.569474,0.3994588 -0.177995,0.1496643 -0.342607,0.3146227 -0.49196,0.4929932 -0.149311,0.1783415 -0.282799,0.3694094 -0.398942,0.5710246 -0.116188,0.2016853 -0.214575,0.4131574 -0.294039,0.6320027 -0.07938,0.2187744 -0.139559,0.4440788 -0.179834,0.6733439 -0.01559,0.1178183 -0.02594,0.2362754 -0.03101,0.3550171 -0.04763,-0.014542 -0.09552,-0.028153 -0.14366,-0.040824 -0.07614,-0.019065 -0.15283,-0.035782 -0.22996,-0.050126 -0.07714,-0.014443 -0.154691,-0.026507 -0.232544,-0.036174 -0.0778,-0.00964 -0.155868,-0.016873 -0.234095,-0.021704 -0.07828,-0.00483 -0.156699,-0.00724 -0.235127,-0.00723 -0.226603,5.94e-5 -0.452777,0.02029 -0.675928,0.060461 -0.223278,0.04002 -0.442708,0.099849 -0.655774,0.1788005 -0.21294,0.079061 -0.418709,0.1769316 -0.614949,0.2924886 -0.196324,0.1155337 -0.382381,0.2483331 -0.556039,0.396875 -0.173515,0.1485837 -0.33398,0.3123346 -0.479557,0.4893758 -0.145644,0.1770528 -0.27585,0.3667413 -0.389124,0.5668905 -0.113308,0.2000358 -0.209276,0.409782 -0.286804,0.6268351 -0.07753,0.2170851 -0.136318,0.4406648 -0.1757,0.6681767 -0.03946,0.227583 -0.05934,0.458252 -0.05943,0.689363 8.7e-5,0.231111 0.01997,0.461781 0.05943,0.689364 0.03938,0.227511 0.09817,0.451091 0.1757,0.668176 0.07753,0.217053 0.173496,0.426799 0.286804,0.626835 0.113274,0.200149 0.24348,0.389838 0.389124,0.566891 0.145577,0.177041 0.306042,0.340792 0.479557,0.489375 0.173658,0.148542 0.359715,0.281342 0.556039,0.396875 0.19624,0.115557 0.402009,0.213428 0.614949,0.292489 0.213066,0.07895 0.432496,0.138781 0.655774,0.178801 0.148969,0.02229 0.299087,0.03575 0.449585,0.04031 0.0653,0.0075 0.130779,0.0134 0.19637,0.01757 l 0.05426,5.17e-4 3.442684,0.03204 c 0,-0.039 0.0034,-0.07697 0.0098,-0.114721 0.0064,-0.03775 0.01627,-0.07501 0.02946,-0.112138 0.01318,-0.03713 0.02988,-0.07448 0.05013,-0.111621 0.02024,-0.03714 0.0437,-0.07435 0.07131,-0.112138 0.02762,-0.03779 0.05927,-0.07617 0.09457,-0.115239 0.0353,-0.03907 0.07453,-0.07891 0.117822,-0.119889 0.0433,-0.04098 0.09051,-0.08309 0.142111,-0.126607 0.05161,-0.04352 0.107723,-0.08818 0.167948,-0.134876 0.120451,-0.09339 0.258158,-0.193965 0.414962,-0.303857 0.156804,-0.109892 0.33248,-0.229254 0.528133,-0.360702 0.391306,-0.262895 0.863038,-0.573957 1.424719,-0.95343 0.08993,-0.06076 0.176257,-0.122733 0.259933,-0.185518 0.08367,-0.06279 0.16472,-0.126642 0.242362,-0.191203 0.07764,-0.06456 0.151928,-0.129771 0.223759,-0.195854 0.07183,-0.06608 0.14098,-0.132637 0.207222,-0.199987 0.06624,-0.06735 0.12981,-0.13524 0.190687,-0.203606 0.06088,-0.06837 0.118933,-0.137578 0.174666,-0.206705 0.05573,-0.06913 0.109386,-0.138621 0.160197,-0.208256 0.05081,-0.06964 0.0991,-0.1394 0.145211,-0.20929 0.04611,-0.06989 0.08962,-0.139915 0.131258,-0.209806 0.04163,-0.06989 0.08148,-0.13965 0.118856,-0.20929 0.03738,-0.06964 0.07259,-0.139121 0.105936,-0.208256 0.03335,-0.06913 0.06452,-0.1378127 0.09405,-0.2061888 0.02954,-0.068376 0.05725,-0.136241 0.0832,-0.2036051 0.02595,-0.067364 0.05028,-0.1344057 0.07286,-0.2005046 0.04516,-0.1321978 0.08376,-0.2614399 0.116789,-0.3870565 0.03303,-0.1256165 0.06052,-0.2473103 0.0832,-0.3643188 0.02268,-0.1170085 0.04067,-0.2295233 0.05478,-0.3358968 0.01411,-0.1063736 0.02421,-0.2065284 0.03152,-0.3002401 0.0073,-0.093712 0.01166,-0.1809094 0.01395,-0.2599325 0.0023,-0.079023 0.0025,-0.1500825 0.0015,-0.2123901 -9.48e-4,-0.062308 -0.0028,-0.1155982 -0.0052,-0.1591634 -6.1e-4,-0.011026 -9.18e-4,-0.00731 -0.0015,-0.017053 0.0011,-0.011192 0.0021,-0.022389 0.0031,-0.03359 1.3e-5,-0.080497 -0.0024,-0.1609774 -0.0072,-0.2413289 -0.0048,-0.080472 -0.01205,-0.1607792 -0.0217,-0.2408122 -0.0097,-0.079928 -0.02172,-0.1595467 -0.03617,-0.2387451 -0.0145,-0.079213 -0.03139,-0.1579701 -0.05064,-0.2361613 -0.01918,-0.078322 -0.04072,-0.1560445 -0.0646,-0.2330607 -0.02389,-0.076738 -0.05009,-0.1527373 -0.07855,-0.2278931 -0.02858,-0.075331 -0.05943,-0.1497794 -0.0925,-0.2232422 -0.03294,-0.073568 -0.0681,-0.1461204 -0.10542,-0.2175578 C 24.87485,5.4803139 24.835385,5.4101739 24.793835,5.341276 24.752298,5.27245 24.708697,5.2048951 24.663094,5.1387044 24.617351,5.0723326 24.569614,5.0073626 24.51995,4.9438843 24.470323,4.8804993 24.418795,4.8186313 24.365438,4.7583659 24.312264,4.6981519 24.257289,4.6395584 24.20059,4.582666 24.143706,4.5256094 24.085112,4.4702901 24.02489,4.4167847 23.964788,4.3634271 23.903093,4.3118992 23.839889,4.2622721 23.776575,4.2126068 23.711777,4.1648703 23.645585,4.1191284 23.579397,4.07334 23.511842,4.0295671 23.443014,3.9878703 23.374288,3.9461439 23.304321,3.906507 23.233207,3.8690145 c -0.0711,-0.037314 -0.143308,-0.07247 -0.216524,-0.1054199 -0.0733,-0.033075 -0.147571,-0.063922 -0.222725,-0.092501 -0.07515,-0.02865 -0.151152,-0.055017 -0.227894,-0.079065 -0.07685,-0.023876 -0.154397,-0.045418 -0.232543,-0.064595 -0.07802,-0.019255 -0.156606,-0.036143 -0.235645,-0.050643 -0.07902,-0.014631 -0.158469,-0.026867 -0.238228,-0.03669 -0.07969,-0.00965 -0.159653,-0.016888 -0.239779,-0.021704 -0.08035,-0.00485 -0.160832,-0.00726 -0.241329,-0.00723 z"
       style="fill:#00ab57;stroke-width:0.181111"
       id="path2" />
    <path
       d="m 19.656165,15.450736 c -0.45598,7.8e-5 -0.911378,0.03272 -1.362708,0.09767 -0.451626,0.06487 -0.898045,0.161921 -1.335836,0.290421 -0.437495,0.128492 -0.865261,0.288062 -1.280025,0.477491 -0.41488,0.189411 -0.815707,0.408216 -1.19941,0.65474 -0.3837,0.246625 -0.749296,0.520348 -1.09399,0.819072 -0.344714,0.298694 -0.667655,0.621635 -0.966349,0.966349 -0.298724,0.344693 -0.572447,0.71029 -0.819072,1.09399 -0.246523,0.383703 -0.465329,0.78453 -0.65474,1.19941 -0.189452,0.414931 -0.349023,0.842871 -0.47749,1.280542 -0.128652,0.437609 -0.225879,0.883855 -0.290939,1.335319 -0.06478,0.451342 -0.09725,0.90674 -0.09715,1.362707 -1.19e-4,0.45614 0.03235,0.911712 0.09715,1.363225 0.06506,0.451464 0.162287,0.89771 0.290939,1.335319 0.128467,0.437671 0.288038,0.865611 0.47749,1.280542 0.02427,0.04515 0.0489,0.09011 0.0739,0.134875 0.152279,0.320098 0.322213,0.6315 0.509013,0.93276 0.03799,0.06063 0.07042,0.115801 0.113171,0.180867 0.01645,0.02504 0.03812,0.05444 0.05529,0.0801 0.217893,0.332128 0.456239,0.650383 0.713652,0.952913 0.0056,0.0067 0.01197,0.01391 0.01757,0.02067 0.110406,0.133185 0.221587,0.266764 0.347265,0.406177 0.16326,0.181102 0.339341,0.366879 0.529684,0.555521 0.190343,0.188643 0.394489,0.380264 0.613399,0.573092 0.109455,0.09641 0.222639,0.193073 0.339514,0.289905 0.116875,0.09683 0.237772,0.194109 0.362252,0.290938 0.12448,0.09683 0.252718,0.193497 0.384989,0.289905 0.132271,0.09641 0.268514,0.192271 0.408761,0.287837 0.140247,0.09557 0.28464,0.190948 0.433048,0.285254 0.148409,0.09431 0.300581,0.18746 0.457337,0.280087 0.156756,0.09263 0.317886,0.18439 0.483175,0.274918 0.165288,0.09053 0.335006,0.180191 0.509012,0.268201 0.174007,0.08801 0.352458,0.174344 0.535368,0.259416 0.18291,0.08507 0.370241,0.168916 0.56224,0.25063 0.191998,0.08172 0.388355,0.161324 0.589628,0.239262 0.201273,0.07794 0.407317,0.154151 0.61805,0.227893 0.214206,-0.07266 0.423783,-0.14806 0.628385,-0.225309 0.204603,-0.07725 0.40426,-0.156315 0.599447,-0.237712 0.195187,-0.0814 0.386099,-0.165011 0.572058,-0.250114 0.185959,-0.0851 0.367234,-0.172083 0.544153,-0.260449 0.176919,-0.08837 0.349214,-0.178048 0.517281,-0.269234 0.168067,-0.09119 0.331524,-0.183423 0.490926,-0.276986 0.159402,-0.09356 0.31468,-0.188205 0.465605,-0.283703 0.150925,-0.0955 0.297648,-0.191881 0.440283,-0.288871 0.142635,-0.09699 0.281462,-0.194966 0.415995,-0.293006 0.134534,-0.09804 0.265088,-0.196426 0.391708,-0.295072 0.126619,-0.09865 0.249043,-0.197296 0.367936,-0.296106 0.118893,-0.09881 0.233844,-0.197574 0.345198,-0.296106 0.22271,-0.197064 0.430571,-0.393234 0.624252,-0.586528 0.193681,-0.193294 0.373347,-0.384008 0.539502,-0.569991 0.01329,-0.01487 0.02357,-0.02859 0.03669,-0.04341 0.107506,-0.102615 0.212611,-0.20772 0.315226,-0.315226 0.298546,-0.344711 0.572096,-0.710307 0.818555,-1.09399 0.246701,-0.383688 0.465679,-0.784515 0.655257,-1.19941 0.189452,-0.414931 0.349023,-0.842871 0.47749,-1.280542 0.128477,-0.437622 0.225532,-0.883868 0.290422,-1.335319 0.06498,-0.451501 0.09762,-0.907072 0.09767,-1.363225 -1.2e-4,-0.156652 -0.0041,-0.31328 -0.01188,-0.469738 -0.0077,-0.156494 -0.01925,-0.312778 -0.03462,-0.468706 -0.0153,-0.155991 -0.03442,-0.311585 -0.05736,-0.466638 -0.0229,-0.155144 -0.04961,-0.309704 -0.0801,-0.463537 -0.0307,-0.153612 -0.06516,-0.306449 -0.103353,-0.45837 -0.03797,-0.152068 -0.07967,-0.303182 -0.125057,-0.453203 -0.0456,-0.150014 -0.09488,-0.298889 -0.147794,-0.446484 -0.05274,-0.147431 -0.109082,-0.293548 -0.168982,-0.438216 -0.06003,-0.144855 -0.123615,-0.288215 -0.190686,-0.429948 -0.067,-0.141751 -0.137477,-0.281838 -0.211357,-0.420129 -0.07382,-0.138126 -0.15101,-0.274421 -0.23151,-0.408761 -0.08062,-0.134504 -0.164536,-0.267009 -0.251664,-0.397392 -0.0871,-0.130354 -0.177391,-0.258551 -0.270785,-0.384472 -0.09325,-0.12585 -0.189566,-0.249395 -0.288871,-0.37052 -0.09956,-0.121183 -0.202084,-0.239903 -0.307475,-0.356051 -0.105208,-0.115975 -0.213245,-0.229353 -0.324011,-0.340031 -0.110842,-0.110947 -0.224393,-0.219157 -0.340548,-0.324528 -0.116154,-0.105217 -0.234874,-0.207568 -0.356051,-0.306958 -0.121119,-0.09948 -0.244664,-0.195972 -0.37052,-0.289388 -0.125927,-0.09322 -0.254124,-0.183337 -0.384472,-0.270268 -0.130213,-0.08712 -0.262546,-0.171035 -0.396875,-0.251664 -0.134505,-0.08068 -0.270973,-0.158048 -0.409278,-0.232027 -0.138121,-0.07387 -0.278035,-0.144347 -0.419612,-0.211357 -0.141738,-0.0669 -0.285098,-0.130307 -0.429948,-0.190169 -0.144834,-0.06008 -0.291124,-0.116599 -0.438733,-0.169499 -0.147429,-0.05273 -0.296131,-0.101838 -0.445968,-0.147278 -0.150016,-0.04556 -0.30113,-0.08743 -0.453202,-0.125573 -0.152097,-0.03803 -0.305106,-0.07232 -0.458887,-0.102836 -0.153661,-0.03048 -0.308049,-0.05719 -0.46302,-0.0801 -0.155049,-0.02311 -0.310643,-0.04241 -0.466639,-0.05788 -0.155927,-0.01537 -0.312211,-0.02692 -0.468705,-0.03462 -0.156634,-0.0076 -0.313435,-0.01143 -0.470255,-0.01137 z m 0.05581,5.891114 c 0.09796,1.18e-4 0.195875,0.0041 0.293522,0.01188 0.09773,0.0075 0.195133,0.01892 0.291972,0.03411 0.09666,0.01535 0.192679,0.03448 0.287838,0.05736 0.09541,0.02298 0.189878,0.0497 0.283187,0.0801 0.0931,0.03015 0.184983,0.06394 0.275435,0.101286 0.09046,0.03749 0.179411,0.07852 0.26665,0.12299 0.08746,0.0445 0.173139,0.09243 0.256832,0.14366 0.08341,0.05122 0.164776,0.105697 0.243913,0.163298 0.07935,0.05758 0.156409,0.118265 0.230994,0.181901 0.07441,0.06365 0.146298,0.130187 0.21549,0.199471 0.06929,0.06936 0.135837,0.14142 0.199471,0.216007 0.06363,0.07442 0.124306,0.151302 0.181902,0.230477 0.05761,0.07931 0.112087,0.160846 0.163297,0.24443 0.05122,0.08352 0.09915,0.169029 0.143661,0.256315 0.04448,0.08741 0.08551,0.176534 0.122989,0.267167 0.03752,0.09044 0.07149,0.182327 0.101803,0.275435 0.03021,0.09315 0.05676,0.187443 0.07958,0.282671 0.02289,0.09533 0.04202,0.191522 0.05736,0.288354 0.01536,0.09683 0.02691,0.194232 0.03462,0.291972 1.78e-4,0.0038 3.5e-4,0.0076 5.17e-4,0.01137 3.5e-4,0.0038 6.94e-4,0.0076 0.001,0.01137 1.78e-4,0.0036 3.5e-4,0.0072 5.17e-4,0.01085 3.5e-4,0.0038 6.95e-4,0.0076 0.001,0.01137 1.78e-4,0.0038 3.51e-4,0.0076 5.17e-4,0.01137 3.5e-4,0.0038 6.95e-4,0.0076 0.001,0.01137 1.78e-4,0.0038 3.5e-4,0.0076 5.16e-4,0.01137 1.78e-4,0.0038 3.51e-4,0.0076 5.17e-4,0.01137 1.78e-4,0.0036 3.5e-4,0.0072 5.17e-4,0.01085 1.78e-4,0.0038 3.5e-4,0.0076 5.17e-4,0.01137 1.78e-4,0.0038 3.5e-4,0.0076 5.16e-4,0.01137 1.78e-4,0.0038 3.51e-4,0.0076 5.17e-4,0.01137 1.78e-4,0.0038 3.5e-4,0.0076 5.17e-4,0.01137 1.78e-4,0.0038 3.5e-4,0.0076 5.17e-4,0.01137 1.77e-4,0.0036 3.49e-4,0.0072 5.17e-4,0.01085 5e-6,0.0038 5e-6,0.0076 0,0.01137 1.78e-4,0.0038 3.5e-4,0.0076 5.16e-4,0.01137 1.78e-4,0.0038 3.51e-4,0.0076 5.17e-4,0.01137 6e-6,0.0038 6e-6,0.0076 0,0.01137 6e-6,0.0038 6e-6,0.0076 0,0.01137 1.78e-4,0.0038 3.5e-4,0.0076 5.17e-4,0.01137 6e-6,0.0038 6e-6,0.0076 0,0.01137 5e-6,0.0036 5e-6,0.0072 0,0.01085 6e-6,0.0038 6e-6,0.0076 0,0.01137 1.78e-4,0.0038 3.5e-4,0.0076 5.17e-4,0.01137 5e-6,0.0038 5e-6,0.0076 0,0.01137 -1.22e-4,0.0112 -2.95e-4,0.02239 -5.17e-4,0.03359 -1.22e-4,0.0112 -2.94e-4,0.02239 -5.17e-4,0.03359 -1.22e-4,0.0112 -2.94e-4,0.02239 -5.17e-4,0.03359 -2.94e-4,0.0112 -6.38e-4,0.02239 -0.001,0.03359 -4.67e-4,0.0112 -9.83e-4,0.02239 -0.0016,0.03359 -4.66e-4,0.0112 -9.83e-4,0.0224 -0.0015,0.03359 -6.39e-4,0.0112 -0.0013,0.0224 -0.0021,0.03359 -6.4e-4,0.01103 -0.0013,0.02205 -0.0021,0.03307 -8.11e-4,0.0112 -0.0017,0.0224 -0.0026,0.03359 -8.11e-4,0.0112 -0.0017,0.0224 -0.0026,0.03359 -9.83e-4,0.0112 -0.002,0.0224 -0.0031,0.03359 -0.0012,0.01103 -0.0024,0.02205 -0.0036,0.03307 -0.0012,0.0112 -0.0024,0.0224 -0.0036,0.03359 -0.0013,0.01103 -0.0027,0.02206 -0.0041,0.03307 -0.0015,0.0112 -0.0031,0.0224 -0.0047,0.03359 -0.0015,0.01103 -0.0031,0.02206 -0.0047,0.03307 -0.0015,0.01103 -0.0031,0.02206 -0.0047,0.03307 -0.0017,0.0112 -0.0034,0.0224 -0.0052,0.03359 -0.0018,0.01103 -0.0037,0.02206 -0.0057,0.03307 -0.0018,0.01103 -0.0037,0.02206 -0.0057,0.03307 -0.002,0.01103 -0.0041,0.02206 -0.0062,0.03307 -0.0022,0.01086 -0.0044,0.02171 -0.0067,0.03256 -0.0022,0.01103 -0.0044,0.02206 -0.0067,0.03307 -0.0022,0.01103 -0.0044,0.02206 -0.0067,0.03307 -0.0024,0.01086 -0.0048,0.02172 -0.0072,0.03256 -0.06241,0.273262 -0.155319,0.538651 -0.276985,0.791167 -0.121459,0.252431 -0.27088,0.49043 -0.445451,0.709517 -0.174754,0.21915 -0.373579,0.417974 -0.592729,0.592729 -0.219087,0.174571 -0.457086,0.323991 -0.709517,0.44545 -0.252516,0.121667 -0.517905,0.214579 -0.791167,0.276986 -0.273106,0.06241 -0.55236,0.09396 -0.832507,0.09405 -0.28032,-5.2e-5 -0.559749,-0.0316 -0.833024,-0.09405 -0.273085,-0.06244 -0.538299,-0.155356 -0.790649,-0.276986 -0.252432,-0.121459 -0.490431,-0.270879 -0.709518,-0.44545 -0.21915,-0.174755 -0.417974,-0.373579 -0.592728,-0.592729 -0.174752,-0.219062 -0.324347,-0.457061 -0.445968,-0.709517 -0.121489,-0.252538 -0.214227,-0.517926 -0.276469,-0.791167 -0.06241,-0.273106 -0.09396,-0.55236 -0.09405,-0.832507 5.2e-5,-0.28032 0.0316,-0.559749 0.09405,-0.833024 0.06228,-0.273064 0.155017,-0.538277 0.276469,-0.79065 0.121621,-0.252456 0.271216,-0.490455 0.445968,-0.709517 0.174754,-0.21915 0.373578,-0.417974 0.592728,-0.592729 0.219062,-0.174751 0.457061,-0.324346 0.709518,-0.445967 0.252372,-0.121453 0.517585,-0.21419 0.790649,-0.276469 0.273275,-0.06245 0.552704,-0.094 0.833024,-0.09405 z"
       style="fill:#ff751a;stroke-width:0.264583"
       id="path3" />
  </g>
</svg>
