<?xml version="1.0" encoding="UTF-8" standalone="no"?>
<!-- Created with Inkscape (http://www.inkscape.org/) -->

<svg
   width="150"
   height="150"
   viewBox="0 0 39.687499 39.6875"
   version="1.1"
   id="svg1"
   inkscape:version="1.3 (0e150ed6c4, 2023-07-21)"
   sodipodi:docname="중고나라.svg"
   xmlns:inkscape="http://www.inkscape.org/namespaces/inkscape"
   xmlns:sodipodi="http://sodipodi.sourceforge.net/DTD/sodipodi-0.dtd"
   xmlns="http://www.w3.org/2000/svg"
   xmlns:svg="http://www.w3.org/2000/svg">
  <sodipodi:namedview
     id="namedview1"
     pagecolor="#ffffff"
     bordercolor="#000000"
     borderopacity="0.25"
     inkscape:showpageshadow="2"
     inkscape:pageopacity="0.0"
     inkscape:pagecheckerboard="0"
     inkscape:deskcolor="#d1d1d1"
     inkscape:document-units="mm"
     showguides="true"
     inkscape:zoom="5.6568543"
     inkscape:cx="73.539105"
     inkscape:cy="66.909979"
     inkscape:window-width="2880"
     inkscape:window-height="1694"
     inkscape:window-x="-11"
     inkscape:window-y="-11"
     inkscape:window-maximized="1"
     inkscape:current-layer="layer1">
    <sodipodi:guide
       position="20.016584,18.622927"
       orientation="1,0"
       id="guide1"
       inkscape:locked="false" />
  </sodipodi:namedview>
  <defs
     id="defs1" />
  <g
     inkscape:label="Layer 1"
     inkscape:groupmode="layer"
     id="layer1">
    <path
       d="m 22.584668,7.2558879 c -0.10751,0.00793 -0.214167,0.024872 -0.318844,0.050643 -0.19238,0.062352 -0.373748,0.1546056 -0.537435,0.2733683 -0.163417,0.1188975 -0.307114,0.262769 -0.425813,0.4263306 -0.118897,0.1634945 -0.211324,0.3446867 -0.273885,0.5369181 -0.04317,0.1506097 -0.06782,0.3059271 -0.07338,0.4625041 V 9.2723022 30.391427 H 19.041732 V 18.887736 H 7.8806559 v 8.372099 0.412894 c 0.00633,0.29905 0.03989,0.596906 0.1002523,0.889869 0.082073,0.359636 0.2042792,0.708922 0.3643189,1.04128 0.1601101,0.332256 0.3570269,0.645485 0.5870442,0.933793 0.2300599,0.288506 0.4918083,0.550254 0.7803141,0.780314 0.2883076,0.230017 0.6015376,0.426934 0.9337936,0.587044 0.332358,0.16004 0.681643,0.282247 1.04128,0.364319 0.249773,0.04792 0.502885,0.07643 0.757059,0.08527 h 0.679029 5.844604 v 0.0021 h 1.99161 v -0.0016 h 9.068697 0.371037 c 0.138542,-0.0069 0.275939,-0.02872 0.409794,-0.06511 0.19238,-0.06235 0.373749,-0.154606 0.537435,-0.273369 0.163601,-0.118855 0.307475,-0.262729 0.42633,-0.42633 0.118763,-0.163686 0.211017,-0.345055 0.273369,-0.537435 0.04013,-0.143231 0.06354,-0.290633 0.06976,-0.43925 V 30.169218 7.2558879 h -8.859408 z"
       style="fill:#00cf43;stroke-width:0.295813;fill-opacity:1"
       id="path4" />
  </g>
</svg>
